<mxfile host="app.diagrams.net" modified="2023-10-07T04:34:35.257Z" agent="Mozilla/5.0 (Windows NT 10.0; Win64; x64) AppleWebKit/537.36 (KHTML, like Gecko) Chrome/117.0.0.0 Safari/537.36" version="21.7.5" etag="N43__OcyKiTwPvlJSQHK" type="github">
  <diagram name="PÃ¡gina-1" id="RgG7c36oDUI5WDcwzY1r">
    <mxGraphModel>
      <root>
        <mxCell id="0" />
        <mxCell id="1" parent="0" />
      </root>
    </mxGraphModel>
  </diagram>
</mxfile>
